<svg width="175" height="67" viewBox="0 0 175 67" fill="none" xmlns="http://www.w3.org/2000/svg">
<path d="M70.6854 0C67.1663 0.933726 65.5422 5.20194 65.5422 5.20194L63.226 10.2555C59.6067 18.0981 47.0592 15.9251 47.0592 15.9251C43.1983 13.7539 35.3557 14.2613 35.3557 14.2613C35.3557 14.2613 27.5131 13.7539 23.6522 15.9251C23.6522 15.9251 11.1047 18.0963 7.48548 10.2555L5.17101 5.20194C5.17101 5.20194 3.54691 0.935452 0.0277488 0C0.0277488 0 -0.793792 14.1681 6.50342 19.874C6.50342 19.874 15.1141 26.6293 23.2242 22.5251C23.2242 22.5251 21.7658 25.2175 19.6032 26.2876C19.6032 26.2876 17.2594 33.3483 17.715 35.901C17.715 35.901 17.8617 40.2158 20.782 42.7788C20.782 42.7788 25.2591 47.4008 24.384 52.853C24.384 52.853 27.1162 48.3242 28.5625 47.5821C28.5625 47.5821 30.8027 46.115 35.3575 46.2807C39.9122 46.1133 42.1524 47.5821 42.1524 47.5821C43.5125 48.2068 46.3309 52.853 46.3309 52.853C45.3247 47.8133 49.9329 42.7788 49.9329 42.7788C52.8514 40.2158 52.9999 35.901 52.9999 35.901C53.4555 33.3483 51.1117 26.2876 51.1117 26.2876C48.9491 25.2175 47.4907 22.5251 47.4907 22.5251C55.6008 26.6293 64.2115 19.874 64.2115 19.874C71.5052 14.1681 70.6854 0 70.6854 0ZM22.9187 35.4609C20.9408 33.3483 20.5456 32.3421 21.5621 28.7746C24.1562 29.2337 27.4009 33.4001 27.6943 35.6162C26.1462 36.9469 24.4582 37.104 22.9187 35.4609ZM31.2739 22.8737C31.2739 23.1826 31.0237 23.4329 30.7147 23.4329C30.4058 23.4329 30.1555 23.1826 30.1555 22.8737V18.9593C30.1555 18.6504 30.4058 18.4001 30.7147 18.4001C31.0237 18.4001 31.2739 18.6504 31.2739 18.9593V22.8737ZM37.1472 32.2507C37.1472 32.6321 36.8383 32.941 36.4569 32.941H34.4824C34.101 32.941 33.792 32.6321 33.792 32.2507V22.8737H37.1472V32.2507ZM39.384 22.5941H31.5552V19.2389H39.384V22.5941ZM40.782 22.8737C40.782 23.1826 40.5318 23.4329 40.2228 23.4329C39.9139 23.4329 39.6636 23.1826 39.6636 22.8737V18.9593C39.6636 18.6504 39.9139 18.4001 40.2228 18.4001C40.5318 18.4001 40.782 18.6504 40.782 18.9593V22.8737ZM49.1493 28.7746C50.1659 32.3421 49.7724 33.3483 47.7928 35.4609C46.255 37.104 44.5653 36.9469 43.0154 35.6162C43.3105 33.4001 46.5553 29.2337 49.1493 28.7746Z" fill="#FFA552"/>
<path d="M40.0849 57.6078C38.1277 56.3496 44.2392 53.0807 43.1605 50.6161C42.1819 48.3793 40.3645 47.4007 35.4698 47.4007H35.4663C30.5716 47.4007 28.7542 48.3793 27.7756 50.6161C26.6986 53.079 32.8101 56.3496 30.8512 57.6078C28.4556 59.1473 25.8166 56.07 26.6589 51.7345C24.1408 54.3907 24.1408 58.5864 25.1211 60.264C26.7331 63.0221 31.2723 60.6834 35.468 60.6834C39.6638 60.6834 44.2029 63.0221 45.815 60.264C46.7953 58.5864 46.7953 54.3907 44.2772 51.7345C45.1177 56.07 42.4787 59.1473 40.0849 57.6078Z" fill="#FFA552"/>
<path d="M35.4695 61.6616H35.4678C30.8561 61.6616 30.435 63.6189 26.1012 62.0811C28.0584 65.576 32.9497 66.6945 35.4678 66.6945H35.4712C37.9894 66.6945 42.8806 65.5743 44.8378 62.0811C40.5023 63.6189 40.0812 61.6634 35.4695 61.6616Z" fill="#FFA552"/>
<path d="M5.50758 24.7483C1.60872 26.1412 10.209 35.6372 14.7361 33.4177C17.9532 31.8402 16.4154 28.5247 18.6505 26.2861C13.0585 28.3849 7.46478 24.0493 5.50758 24.7483Z" fill="#FFA552"/>
<path d="M65.204 24.7484C63.2468 24.0494 57.6531 28.3832 52.0611 26.2862C54.2979 28.523 52.7601 31.8402 55.9755 33.4177C60.5026 35.6372 69.1028 26.1429 65.204 24.7484Z" fill="#FFA552"/>
<path d="M82.6272 42.2676V40.8003C82.9681 40.7855 83.2497 40.741 83.472 40.6669C83.7091 40.5928 83.887 40.4224 84.0056 40.1556C84.139 39.8888 84.2057 39.459 84.2057 38.8661V30.3514C84.2057 29.9513 84.2131 29.5659 84.2279 29.1954C84.2575 28.8249 84.2798 28.5433 84.2946 28.3506C84.0574 28.3654 83.761 28.3802 83.4053 28.395C83.0496 28.395 82.7902 28.4025 82.6272 28.4173V26.7054H89.0077V28.1727C88.6816 28.1875 88.4 28.232 88.1629 28.3061C87.9257 28.3802 87.7405 28.5507 87.6071 28.8174C87.4885 29.0694 87.4292 29.4992 87.4292 30.1069V38.6216C87.4292 39.0218 87.4218 39.3997 87.407 39.7554C87.3922 40.1111 87.37 40.3853 87.3403 40.578H90.3194C91.1938 40.5632 91.8756 40.2593 92.3647 39.6665C92.8686 39.0588 93.1205 38.1473 93.1205 36.932H94.6101L94.4767 42.2676H82.6272ZM101.113 42.6233C100.031 42.6233 99.0753 42.3861 98.2453 41.9119C97.4153 41.4228 96.7706 40.741 96.3111 39.8666C95.8517 38.9773 95.6219 37.9324 95.6219 36.7319C95.6219 35.6944 95.8517 34.7236 96.3111 33.8196C96.7706 32.9155 97.4153 32.1892 98.2453 31.6409C99.0901 31.0777 100.068 30.7961 101.18 30.7961C101.802 30.7961 102.41 30.885 103.003 31.0628C103.596 31.2259 104.129 31.5149 104.604 31.9299C105.093 32.3449 105.478 32.9081 105.76 33.6195C106.056 34.3309 106.197 35.2202 106.182 36.2873L98.89 36.4207C98.89 37.221 98.9863 37.9398 99.179 38.5771C99.3865 39.2144 99.72 39.7184 100.179 40.0889C100.639 40.4594 101.254 40.6447 102.025 40.6447C102.321 40.6447 102.655 40.5928 103.025 40.489C103.41 40.3853 103.796 40.2149 104.181 39.9777C104.581 39.7258 104.952 39.3923 105.293 38.9773L106.293 39.911C105.76 40.6669 105.189 41.2449 104.581 41.6451C103.974 42.0304 103.366 42.2898 102.758 42.4232C102.165 42.5566 101.617 42.6233 101.113 42.6233ZM99.0234 34.8644H103.114C103.099 34.242 103.01 33.7529 102.847 33.3972C102.699 33.0266 102.492 32.7599 102.225 32.5968C101.958 32.4338 101.647 32.3523 101.291 32.3523C100.639 32.3523 100.128 32.5894 99.757 33.0637C99.3865 33.5231 99.1419 34.1234 99.0234 34.8644ZM107.807 40.8225C108.222 40.8225 108.518 40.741 108.696 40.578C108.874 40.4149 108.985 40.1852 109.03 39.8888C109.089 39.5776 109.118 39.2293 109.118 38.8439V35.1535C109.118 34.8867 109.126 34.5828 109.141 34.242C109.156 33.8863 109.178 33.5454 109.207 33.2193C108.97 33.2341 108.689 33.2489 108.363 33.2638C108.051 33.2638 107.814 33.2712 107.651 33.286V31.5964C108.333 31.5964 108.911 31.5593 109.385 31.4852C109.86 31.4111 110.23 31.3222 110.497 31.2185C110.778 31.1147 110.971 31.0184 111.075 30.9294H112.275V38.6883C112.275 38.8958 112.268 39.1922 112.253 39.5776C112.238 39.9481 112.216 40.3038 112.186 40.6447C112.424 40.615 112.683 40.6002 112.965 40.6002C113.261 40.5854 113.483 40.578 113.631 40.578V42.2676H107.807V40.8225ZM110.586 29.1731C110.082 29.1731 109.667 28.9953 109.341 28.6396C109.015 28.2839 108.852 27.8541 108.852 27.3502C108.852 26.8462 109.022 26.4164 109.363 26.0607C109.704 25.705 110.104 25.5272 110.564 25.5272C111.038 25.5272 111.431 25.705 111.742 26.0607C112.068 26.4164 112.231 26.8462 112.231 27.3502C112.231 27.8541 112.083 28.2839 111.786 28.6396C111.49 28.9953 111.09 29.1731 110.586 29.1731ZM114.724 40.8225C115.139 40.8225 115.436 40.741 115.613 40.578C115.806 40.4149 115.925 40.1852 115.969 39.8888C116.014 39.5776 116.036 39.2293 116.036 38.8439V29.7067C116.036 29.4399 116.043 29.1361 116.058 28.7952C116.073 28.4395 116.095 28.0986 116.125 27.7726C115.888 27.7874 115.606 27.8022 115.28 27.817C114.969 27.817 114.732 27.8244 114.568 27.8393V26.1496C115.265 26.1496 115.843 26.1126 116.303 26.0385C116.777 25.9644 117.147 25.8755 117.414 25.7717C117.696 25.668 117.888 25.5716 117.992 25.4827H119.193V38.6883C119.193 38.8958 119.185 39.1922 119.17 39.5776C119.156 39.9481 119.133 40.3038 119.104 40.6447C119.356 40.615 119.622 40.6002 119.904 40.6002C120.186 40.5854 120.401 40.578 120.549 40.578V42.2676H114.724V40.8225ZM127.452 42.6233C126.385 42.6233 125.422 42.3936 124.562 41.9341C123.703 41.4746 123.021 40.8225 122.517 39.9777C122.028 39.1181 121.783 38.1103 121.783 36.9542C121.783 35.7241 122.035 34.6495 122.539 33.7306C123.058 32.7969 123.74 32.0781 124.584 31.5742C125.444 31.0554 126.378 30.7961 127.386 30.7961C128.453 30.7961 129.409 31.0258 130.253 31.4852C131.098 31.9447 131.765 32.6042 132.254 33.4639C132.743 34.3087 132.988 35.3239 132.988 36.5096C132.988 37.7546 132.751 38.8365 132.277 39.7554C131.802 40.6743 131.15 41.3857 130.32 41.8896C129.49 42.3787 128.534 42.6233 127.452 42.6233ZM127.541 41.0448C128.134 41.03 128.579 40.8225 128.875 40.4224C129.186 40.0222 129.401 39.5183 129.52 38.9106C129.638 38.3029 129.698 37.6879 129.698 37.0654C129.698 36.517 129.653 35.9612 129.564 35.398C129.49 34.8348 129.364 34.3235 129.186 33.864C129.008 33.4046 128.764 33.034 128.453 32.7524C128.156 32.4708 127.786 32.3375 127.341 32.3523C126.763 32.3671 126.304 32.5746 125.963 32.9748C125.637 33.3749 125.4 33.8788 125.251 34.4865C125.118 35.0794 125.051 35.7018 125.051 36.354C125.051 37.1098 125.133 37.8509 125.296 38.5771C125.459 39.3034 125.718 39.9036 126.074 40.3779C126.444 40.8373 126.934 41.0597 127.541 41.0448ZM133.449 42.2676V40.7336C133.864 40.7336 134.198 40.615 134.45 40.3779C134.702 40.1408 134.909 39.8295 135.072 39.4442C135.25 39.0588 135.421 38.6438 135.584 38.1992L139.919 26.3053H141.475L146.21 38.4215C146.299 38.6438 146.418 38.9847 146.566 39.4442C146.714 39.8888 146.803 40.2816 146.833 40.6224C147.085 40.5928 147.322 40.578 147.544 40.578C147.781 40.5632 147.974 40.5557 148.122 40.5557V42.2676H142.142V40.8003C142.557 40.8003 142.839 40.7188 142.987 40.5557C143.15 40.3779 143.224 40.1408 143.209 39.8443C143.194 39.5479 143.113 39.2144 142.965 38.8439L142.52 37.6212L137.696 37.7101L137.34 38.755C137.266 38.9477 137.155 39.2367 137.006 39.622C136.873 39.9925 136.747 40.3038 136.629 40.5557C136.866 40.5261 137.147 40.5113 137.473 40.5113C137.814 40.4965 138.059 40.489 138.207 40.489V42.2676H133.449ZM138.251 36.0427H141.964L140.941 33.2638C140.749 32.7302 140.578 32.1967 140.43 31.6631C140.282 31.1147 140.171 30.633 140.097 30.218H140.074C140.015 30.47 139.926 30.8479 139.808 31.3518C139.689 31.8558 139.504 32.456 139.252 33.1526L138.251 36.0427ZM148.574 47.9366V46.4916C148.989 46.4916 149.285 46.4101 149.463 46.247C149.656 46.084 149.775 45.8469 149.819 45.5356C149.878 45.2392 149.908 44.8983 149.908 44.513V35.109C149.908 34.8422 149.915 34.5458 149.93 34.2197C149.945 33.8788 149.967 33.5454 149.997 33.2193C149.76 33.2341 149.478 33.2489 149.152 33.2638C148.826 33.2638 148.581 33.2712 148.418 33.286V31.5964C149.115 31.5964 149.693 31.5593 150.152 31.4852C150.627 31.4111 150.997 31.3222 151.264 31.2185C151.546 31.1147 151.738 31.0184 151.842 30.9294H152.931C152.961 31.0777 152.983 31.2629 152.998 31.4852C153.013 31.6927 153.028 31.8632 153.043 31.9966C153.561 31.5519 154.073 31.2407 154.577 31.0628C155.095 30.885 155.584 30.7961 156.044 30.7961C156.933 30.7961 157.711 31.0258 158.378 31.4852C159.06 31.9447 159.586 32.5968 159.957 33.4416C160.342 34.2864 160.535 35.2794 160.535 36.4207C160.535 37.6063 160.305 38.6735 159.845 39.622C159.386 40.5557 158.741 41.2894 157.911 41.8229C157.096 42.3565 156.133 42.6233 155.021 42.6233C154.621 42.6233 154.258 42.5788 153.932 42.4899C153.621 42.4158 153.324 42.3269 153.043 42.2231V44.3574C153.043 44.5648 153.035 44.8539 153.02 45.2244C153.02 45.6097 153.006 45.9728 152.976 46.3137C153.213 46.2841 153.472 46.2619 153.754 46.247C154.036 46.247 154.251 46.247 154.399 46.247V47.9366H148.574ZM154.665 40.9559C155.347 40.9411 155.873 40.741 156.244 40.3557C156.629 39.9555 156.896 39.4368 157.044 38.7994C157.192 38.1621 157.267 37.4804 157.267 36.7541C157.267 36.0724 157.185 35.4276 157.022 34.82C156.859 34.2123 156.6 33.7232 156.244 33.3527C155.888 32.9673 155.421 32.7821 154.843 32.7969C154.473 32.8117 154.132 32.9081 153.821 33.0859C153.509 33.2489 153.25 33.4787 153.043 33.7751C153.043 34.2345 153.043 34.694 153.043 35.1535C153.043 35.5981 153.043 36.0427 153.043 36.4874C153.043 36.932 153.043 37.384 153.043 37.8435C153.043 38.2881 153.043 38.7402 153.043 39.1996C153.043 39.6442 153.043 40.0963 153.043 40.5557C153.206 40.6595 153.435 40.7558 153.732 40.8448C154.028 40.9337 154.339 40.9707 154.665 40.9559ZM161.926 47.9366V46.4916C162.341 46.4916 162.637 46.4101 162.815 46.247C163.008 46.084 163.127 45.8469 163.171 45.5356C163.23 45.2392 163.26 44.8983 163.26 44.513V35.109C163.26 34.8422 163.267 34.5458 163.282 34.2197C163.297 33.8788 163.319 33.5454 163.349 33.2193C163.112 33.2341 162.83 33.2489 162.504 33.2638C162.178 33.2638 161.933 33.2712 161.77 33.286V31.5964C162.467 31.5964 163.045 31.5593 163.504 31.4852C163.979 31.4111 164.349 31.3222 164.616 31.2185C164.898 31.1147 165.09 31.0184 165.194 30.9294H166.283C166.313 31.0777 166.335 31.2629 166.35 31.4852C166.365 31.6927 166.38 31.8632 166.395 31.9966C166.913 31.5519 167.425 31.2407 167.929 31.0628C168.447 30.885 168.936 30.7961 169.396 30.7961C170.285 30.7961 171.063 31.0258 171.73 31.4852C172.412 31.9447 172.938 32.5968 173.309 33.4416C173.694 34.2864 173.887 35.2794 173.887 36.4207C173.887 37.6063 173.657 38.6735 173.197 39.622C172.738 40.5557 172.093 41.2894 171.263 41.8229C170.448 42.3565 169.485 42.6233 168.373 42.6233C167.973 42.6233 167.61 42.5788 167.284 42.4899C166.973 42.4158 166.676 42.3269 166.395 42.2231V44.3574C166.395 44.5648 166.387 44.8539 166.372 45.2244C166.372 45.6097 166.358 45.9728 166.328 46.3137C166.565 46.2841 166.824 46.2619 167.106 46.247C167.388 46.247 167.603 46.247 167.751 46.247V47.9366H161.926ZM168.018 40.9559C168.699 40.9411 169.225 40.741 169.596 40.3557C169.981 39.9555 170.248 39.4368 170.396 38.7994C170.544 38.1621 170.619 37.4804 170.619 36.7541C170.619 36.0724 170.537 35.4276 170.374 34.82C170.211 34.2123 169.952 33.7232 169.596 33.3527C169.24 32.9673 168.773 32.7821 168.195 32.7969C167.825 32.8117 167.484 32.9081 167.173 33.0859C166.861 33.2489 166.602 33.4787 166.395 33.7751C166.395 34.2345 166.395 34.694 166.395 35.1535C166.395 35.5981 166.395 36.0427 166.395 36.4874C166.395 36.932 166.395 37.384 166.395 37.8435C166.395 38.2881 166.395 38.7402 166.395 39.1996C166.395 39.6442 166.395 40.0963 166.395 40.5557C166.558 40.6595 166.787 40.7558 167.084 40.8448C167.38 40.9337 167.691 40.9707 168.018 40.9559Z" fill="white"/>
</svg>
